<svg xmlns="http://www.w3.org/2000/svg" width="106" height="129" fill="none"><path fill="#FFC650" d="M106 0H0v129h106V0Z"/><path fill="#112F45" d="M18.388 100.976c.778-.416 1.238-1.167 1.238-2.034 0-1.087-.858-2.183-2.785-2.183H13.58v7.859h1.211v-3.077h1.99c.733 0 1.484.124 1.529 1.017l.115 2.025v.044h1.202l-.124-2.06c-.053-.787-.424-1.317-1.114-1.582v-.009Zm.018-1.945c0 .902-.68 1.529-1.662 1.529H14.78v-2.82h1.972c1.21 0 1.644.663 1.644 1.29h.009Zm9.45-2.405c-2.369 0-3.907 1.591-3.907 4.058 0 2.466 1.53 4.058 3.907 4.058 2.378 0 3.917-1.592 3.917-4.058 0-2.466-1.539-4.058-3.917-4.058Zm2.688 4.058c0 1.883-1.026 3.05-2.688 3.05-1.662 0-2.687-1.167-2.687-3.05 0-1.883 1.025-3.05 2.687-3.05s2.688 1.167 2.688 3.05Zm10.953-.186c.628-.406 1-1.07 1-1.777 0-1.175-.982-1.962-2.432-1.962h-3.722v7.859h3.943c1.547 0 2.634-.937 2.634-2.29 0-.831-.539-1.529-1.423-1.83Zm-3.943.575h2.626c.92 0 1.512.486 1.512 1.247 0 .831-.557 1.334-1.486 1.334h-2.652v-2.581Zm2.396-.955h-2.396v-2.396h2.414c.822 0 1.3.407 1.3 1.114 0 .77-.531 1.291-1.318 1.291v-.009Zm10.98-3.492c-2.37 0-3.907 1.591-3.907 4.058 0 2.466 1.529 4.058 3.907 4.058s3.916-1.592 3.916-4.058c0-2.466-1.538-4.058-3.916-4.058Zm2.688 4.058c0 1.883-1.026 3.05-2.688 3.05-1.662 0-2.688-1.167-2.688-3.05 0-1.883 1.026-3.05 2.688-3.05 1.662 0 2.688 1.167 2.688 3.05Zm4.623-3.925v.999h2.555v6.86h1.193v-6.86h2.546v-1h-6.294Zm11.705 0h-1.211v7.859h1.21v-7.86Zm8.424.884c1.344 0 2.149.672 2.467 2.042v.035l1.167-.159h.044v-.053c-.362-1.865-1.67-2.89-3.686-2.89-2.334 0-3.837 1.59-3.837 4.057 0 2.467 1.468 4.058 3.837 4.058 1.883 0 3.2-1.008 3.625-2.776v-.044l-1.159-.159v.035c-.389 1.308-1.166 1.918-2.448 1.918-1.636 0-2.617-1.14-2.617-3.041 0-1.9.981-3.04 2.617-3.04l-.01.017Zm11.564 2.608-1.273-.257c-.91-.185-1.29-.548-1.29-1.21 0-.284.114-1.203 1.6-1.203 1.06 0 1.661.495 1.776 1.467v.045l1.203-.142v-.044c-.15-1.432-1.264-2.29-2.98-2.29-1.83 0-2.784 1.097-2.784 2.184 0 1.574 1.264 2.016 2.219 2.21l1.087.221c1.043.221 1.414.53 1.414 1.202 0 .221-.079 1.344-1.68 1.344-.91 0-2.006-.3-2.085-1.741v-.045l-1.15.142h-.035v.044c.035 1.591 1.29 2.573 3.27 2.573 1.981 0 2.892-1.229 2.892-2.361 0-1.131-.69-1.83-2.166-2.13l-.018-.009ZM58.285 25.823s0-.018-.017-.027a.216.216 0 0 0-.098-.08h-.009a.256.256 0 0 0-.08-.017c-.008 0-.026 0-.035.009h-.035a.27.27 0 0 0-.115.088l-2.917 4.845a.219.219 0 0 0 .124.318c.53.16 1.034.372 1.502.628a.228.228 0 0 0 .098.026h.009a.25.25 0 0 0 .106-.035c.009 0 .017-.009.026-.018a.176.176 0 0 0 .07-.106l1.362-5.49c.018-.053 0-.097-.017-.141h.026Zm1.07 7.744 3.36-4.553a.173.173 0 0 0 .035-.141c0-.018 0-.027-.01-.036 0-.026-.017-.052-.043-.079l-.027-.026a.356.356 0 0 0-.08-.045c-.008 0-.026-.009-.035-.009h-.017a.211.211 0 0 0-.124.045l-4.553 3.359a.212.212 0 0 0-.009.336c.212.177.416.353.61.548.194.194.38.398.548.61a.193.193 0 0 0 .08.062h.026c.018 0 .036.009.053.009.018 0 .045 0 .062-.018h.035c.027-.018.053-.035.08-.062h.009Zm6.365-.212v-.088c0-.018-.018-.027-.026-.045-.018-.026-.027-.044-.053-.061-.018-.01-.036-.01-.054-.018-.017 0-.035-.018-.061-.018h-.053l-5.49 1.362a.207.207 0 0 0-.133.309c.256.477.468.981.628 1.503.008.044.044.08.07.106 0 0 .018.009.027.018.026.017.062.026.097.035h.018c.035 0 .07-.009.106-.026l4.845-2.918a.203.203 0 0 0 .097-.115v-.044h-.018Zm-22.455-4.641s-.088-.044-.123-.044h-.018c-.009 0-.027 0-.036.008a.093.093 0 0 0-.08.045l-.026.026c-.017.027-.035.053-.044.08 0 .017-.009.026-.009.035 0 .044 0 .097.036.141l3.36 4.553s.043.053.079.062h.035c.018 0 .044.018.062.018.018 0 .035 0 .053-.009h.026a.245.245 0 0 0 .08-.062 9.34 9.34 0 0 1 .548-.61c.195-.194.398-.38.61-.548a.217.217 0 0 0-.009-.336l-4.553-3.36h.01ZM53.9 30.429l-.84-5.596a.208.208 0 0 0-.08-.142.225.225 0 0 0-.273 0 .223.223 0 0 0-.08.142l-.84 5.596v.097c0 .009.01.018.018.026l.027.054c0 .008.017.017.026.017.018.01.027.027.044.036h.036c.017 0 .026.009.044.009h.026c.274-.027.549-.045.823-.045.274 0 .548.018.822.044h.026c.018 0 .027 0 .044-.008h.036c.018 0 .035-.018.044-.036.009 0 .018-.009.027-.017.017-.018.026-.036.035-.054 0-.008.009-.017.018-.026a.182.182 0 0 0 0-.097h.017Zm-8.195 4.058-5.49-1.362h-.053c-.026 0-.035.018-.062.018-.017 0-.035 0-.053.018-.026.017-.035.035-.053.061-.009.018-.026.027-.026.045-.01.026 0 .061 0 .088v.044a.203.203 0 0 0 .097.115l4.845 2.917s.07.027.106.027h.017a.202.202 0 0 0 .098-.026c.008 0 .017-.01.026-.018a.176.176 0 0 0 .07-.106c.16-.53.372-1.035.629-1.503.07-.124 0-.283-.133-.31l-.018-.008Zm2.069-8.691a.226.226 0 0 0-.115-.088h-.035c-.01 0-.027-.009-.036-.009-.026 0-.053 0-.08.018H47.5a.278.278 0 0 0-.097.08s-.01.017-.018.026a.252.252 0 0 0-.018.141l1.362 5.49c.008.044.035.08.07.106 0 0 .018.01.027.018.035.018.062.035.106.035h.009c.035 0 .07 0 .097-.026a8.305 8.305 0 0 1 1.503-.628c.133-.044.203-.194.124-.318l-2.918-4.845h.027Zm7.196 10.662a3 3 0 0 0-2.13-.884 3 3 0 0 0-2.131.884 3 3 0 0 0-.884 2.13 3 3 0 0 0 .884 2.131 3 3 0 0 0 2.13.884 3 3 0 0 0 2.131-.884 3 3 0 0 0 .884-2.13 3 3 0 0 0-.884-2.13Zm-7.638 14.958 1.67-6.71c.045-.194-.176-.345-.335-.22l-5.393 3.986c-.194.15-.45-.106-.3-.3l3.987-5.393c.123-.16-.027-.389-.221-.336l-6.507 1.618c-.239.062-.371-.265-.16-.39l5.659-3.412c.168-.106.123-.362-.071-.398l-6.507-1.246a.262.262 0 0 0-.141.018l-11.607 6.011c-.204.106-.124.407.097.407h9.689c.203 0 .292.256.133.38l-4.394 3.536c-.16.124-.071.38.132.38h5.163l3.846-.026.026.026-2.236 3.987a.215.215 0 0 0 .185.319h6.224c.08 0 .15.044.194.115l5.835 11.13c.115.212.433.115.407-.124l-2.14-16.7c-.026-.194-.282-.256-.389-.088l-2.44 3.625c-.132.203-.441.062-.388-.168l-.018-.027Zm11.024 0-1.67-6.71c-.045-.194.176-.345.335-.22l5.393 3.986c.194.15.45-.106.3-.3l-3.987-5.393c-.123-.16.027-.389.221-.336l6.507 1.618c.239.062.371-.265.159-.39l-5.658-3.412c-.168-.106-.124-.362.07-.398l6.507-1.246a.262.262 0 0 1 .142.018l11.607 6.011c.204.106.124.407-.097.407h-9.69a.213.213 0 0 0-.132.38l4.394 3.536c.16.124.07.38-.133.38h-5.162l-3.846-.026-.026.026 2.236 3.987a.215.215 0 0 1-.185.319h-6.224a.23.23 0 0 0-.195.115l-5.834 11.13c-.115.212-.434.115-.407-.124l2.14-16.7c.026-.194.282-.256.388-.088l2.44 3.625c.133.203.442.062.39-.168l.017-.027ZM15.922 77.549h-2.21a.088.088 0 0 0-.089.088V91.25c0 .05.04.088.089.088h2.21a.088.088 0 0 0 .088-.088V77.637a.088.088 0 0 0-.088-.088Zm11.262-.23c-3.863 0-6.356 2.802-6.356 7.125s2.431 7.125 6.339 7.125c3.085 0 5.322-1.83 5.994-4.888 0-.027 0-.053-.018-.071-.018-.018-.035-.035-.062-.035l-2.175-.275c-.053 0-.088.018-.097.063-.566 2.05-1.75 3.05-3.633 3.05-2.458 0-3.934-1.857-3.934-4.969s1.467-4.968 3.934-4.968c1.98 0 3.182 1.07 3.668 3.28.01.044.053.07.098.07l2.227-.327s.045-.017.062-.035c.018-.018.018-.044.018-.07-.584-3.228-2.794-5.075-6.073-5.075h.009Zm16.108.291s-.044-.061-.08-.061h-2.396s-.07.026-.08.061l-4.985 13.615s0 .053.009.08a.08.08 0 0 0 .07.034h2.228s.071-.026.08-.061l3.819-10.635 3.73 10.635s.045.061.08.061h2.378s.053-.017.07-.035a.086.086 0 0 0 .01-.08L43.283 77.61h.009Zm16.982 7.364c1.256-.742 1.99-2.06 1.99-3.545 0-1.936-1.442-3.88-4.66-3.88h-5.49c-.052 0-.088.035-.088.088V91.25c0 .053.035.088.089.088h2.21c.053 0 .088-.035.088-.088v-5.083h3.041c1.503 0 2.166.486 2.237 1.626l.185 3.466c0 .044.045.08.089.08h2.21s.044-.01.062-.027a.095.095 0 0 0 .026-.062l-.185-3.465c-.07-1.415-.68-2.352-1.804-2.812Zm-.424-3.306c0 1.459-.964 2.44-2.405 2.44h-3.023v-4.456h3.023c1.769 0 2.405 1.044 2.405 2.016Zm17.495-4.119h-2.21c-.053 0-.088.035-.088.088v8.62c0 1.988-1.088 3.182-2.909 3.182-1.82 0-2.953-1.185-2.953-3.183v-8.62c0-.052-.035-.087-.088-.087h-2.21c-.053 0-.088.035-.088.088v8.62c0 3.677 2.678 5.321 5.33 5.321 3.218 0 5.296-2.086 5.296-5.322v-8.62c0-.052-.035-.087-.089-.087h.01Zm10.989 5.896-2.016-.407c-1.273-.247-1.838-.822-1.838-1.856 0-.433.167-1.839 2.325-1.839 1.555 0 2.395.751 2.572 2.299 0 .044.044.08.089.08h.008l2.246-.257c.044 0 .08-.044.08-.097-.089-.947-.708-4.05-4.978-4.05-3.103 0-4.73 1.99-4.73 3.961 0 2.148 1.23 3.457 3.749 3.996l1.733.371c1.511.336 2.042.814 2.042 1.84 0 1.025-.654 2.068-2.475 2.068-1.353 0-2.98-.478-3.06-2.776a.08.08 0 0 0-.026-.062.069.069 0 0 0-.07-.018l-2.21.257c-.045 0-.08.044-.08.088.062 2.803 2.148 4.544 5.446 4.544 3.297 0 4.915-2.228 4.915-4.287 0-2.06-1.22-3.333-3.73-3.846l.008-.009Z"/></svg>